# AST/ASF file generated using VICON BodyLanguage
# -----------------------------------------------
:version 1.10
:name VICON
:units
  mass 1.0
  length 0.45
  angle deg
:documentation
   .ast/.asf automatically generated from VICON data using
   VICON BodyBuilder and BodyLanguage model FoxedUp or BRILLIANT.MOD
:root
   order TX TY TZ RX RY RZ
   axis XYZ
   position 0 0 0  
   orientation 0 0 0 
:bonedata
  begin
     id 1 
     name lhipjoint
     direction 0.625129 -0.738222 0.253461 
     length 2.5165 
     axis 0 0 0  XYZ
  end
  begin
     id 2 
     name lfemur
     direction 0.34202 -0.939693 0  
     length 7.54288  
     axis 0 0 20  XYZ
    dof rx ry rz
    limits (-160.0 20.0)
           (-70.0 70.0)
           (-60.0 70.0)
  end
  begin
     id 3 
     name ltibia
     direction 0.34202 -0.939693 0   
     length 7.71864   
     axis 0 0 20   XYZ
    dof rx
    limits (-10.0 170.0)
  end
  begin
     id 4 
     name lfoot
     direction 0.0772037 -0.212115 0.97419   
     length 2.18429   
     axis -90 7.62852e-016 20   XYZ
    dof rx rz
    limits (-45.0 90.0)
           (-70.0 20.0)
  end
  begin
     id 5 
     name ltoes
     direction 1.53513e-011 -4.21834e-011 1   
     length 1.09718   
     axis -90 7.62852e-016 20   XYZ
    dof rx
    limits (-90.0 20.0)
  end
  begin
     id 6 
     name rhipjoint
     direction -0.621946 -0.740623 0.254285   
     length 2.50835  
     axis 0 0 0  XYZ 
  end
  begin
     id 7 
     name rfemur
     direction -0.34202 -0.939693 0   
     length 7.43366   
     axis 0 0 -20   XYZ
    dof rx ry rz
    limits (-160.0 20.0)
           (-70.0 70.0)
           (-70.0 60.0)
  end
  begin
     id 8 
     name rtibia
     direction -0.34202 -0.939693 0   
     length 7.77122   
     axis 0 0 -20   XYZ
    dof rx
    limits (-10.0 170.0)
 end
 begin
     id 9 
     name rfoot
     direction -0.082694 -0.2272 0.970331   
     length 2.2293  
     axis -90 -7.62852e-016 -20   XYZ
    dof rx rz
    limits (-45.0 90.0)
           (-20.0 70.0)
  end
  begin
     id 10 
     name rtoes
     direction -1.53565e-011 -4.21695e-011 1   
     length 1.1178   
     axis -90 -7.62852e-016 -20   XYZ
    dof rx
    limits (-90.0 20.0)
  end
  begin
     id 11 
     name lowerback
     direction -0.000695208 0.988391 -0.151929   
     length 1.95077   
     axis 0 0 0   XYZ
    dof rx ry rz
    limits (-20.0 45.0)
           (-30.0 30.0)
           (-30.0 30.0)
  end
  begin
     id 12 
     name upperback
     direction -0.00268925 0.999885 -0.0149203   
     length 1.96246   
     axis 0 0 0   XYZ
    dof rx ry rz
    limits (-20.0 45.0)
           (-30.0 30.0)
           (-30.0 30.0)
  end
  begin
     id 13 
     name thorax
     direction -0.000848408 0.998481 0.0550912   
     length 2.00867   
     axis 0 0 0   XYZ
    dof rx ry rz
    limits (-20.0 45.0)
           (-30.0 30.0)
           (-30.0 30.0)
  end
  begin
     id 14 
     name lowerneck
     direction -0.00577709 0.998999 0.0443608   
     length 1.75762   
     axis 0 0 0   XYZ
    dof rx ry rz
    limits (-20.0 45.0)
           (-30.0 30.0)
           (-30.0 30.0)
  end
  begin
     id 15 
     name upperneck
     direction 0.0320945 0.999136 0.0264105   
     length 1.72601   
     axis 0 0 0   XYZ
    dof rx ry rz
    limits (-20.0 45.0)
           (-30.0 30.0)
           (-30.0 30.0)
  end
  begin
     id 16
     name head
     direction 0.0120552 0.999916 0.00480151  
     length 1.79973  
     axis 0 0 0   XYZ
    dof rx ry rz
    limits (-20.0 45.0)
           (-30.0 30.0)
           (-30.0 30.0)
  end
  begin
     id 17 
     name lclavicle
     direction 0.909 0.371533 -0.188897  
     length 3.47956  
     axis 0 0 0   XYZ
    dof ry rz
    limits (-20.0 10.0)
           (0.0 20.0)
  end
  begin
     id 18 
     name lhumerus
     direction 1 -4.48963e-011 -6.48352e-028   
     length 5.52302   
     axis 180 -30 -90   XYZ
    dof rx ry rz
    limits (-60.0 90.0)
           (-90.0 90.0)
           (-90.0 90.0)
  end
  begin
     id 19
     name lradius
     direction 1 -4.48968e-011 -4.78536e-027   
     length 3.58675   
     axis 180 -30 -90   XYZ
    dof rx
    limits (-10.0 170.0)
  end
  begin
     id 20
     name lwrist
     direction 1 -4.48942e-011 -9.9435e-027   
     length 1.79337   
     axis 8.54312e-015 90 90   XYZ
    dof ry
    limits (-180.0 0.0)
 end
  begin
     id 21 
     name lhand
     direction 1 -4.4904e-011 -1.9887e-026   
     length 0.536412   
     axis 1.26896e-014 90 90   XYZ
    dof rx rz
    limits (-90.0 90.0)
           (-45.0 45.0)
  end
  begin
     id 22 
     name lfingers
     direction 1 -4.48893e-011 -3.9774e-026   
     length 0.432469   
     axis 2.53792e-014 90 90   XYZ
    dof rx
    limits (0.0 90.0)
  end
  begin
     id 23
     name lthumb
     direction 0.707107 -6.34934e-011 0.707107   
     length 0.620942   
     axis -90 45 2.85299e-015   XYZ
    dof rx rz
    limits (-45.0 45.0)
           (-45.0 45.0)
  end
  begin
     id 24 
     name rclavicle
     direction -0.89595 0.416672 -0.153813   
     length 3.44099  
     axis 0 0 0   XYZ 
    dof ry rz
    limits (-10.0 20.0)
           (-20.0 0.0)
  end
  begin
     id 25 
     name rhumerus
     direction -1 -4.48952e-011 5.57804e-028  
     length 5.8478   
     axis 180 30 90   XYZ
    dof rx ry rz
    limits (-90.0 60.0)
           (-90.0 90.0)
           (-90.0 90.0)
  end
  begin
     id 26 
     name rradius
     direction -1 -4.48967e-011 -7.93646e-027   
     length 3.62717   
     axis 180 30 90   XYZ
    dof rx
    limits (-10.0 170.0)
  end
  begin
     id 27 
     name rwrist
     direction -1 -4.49008e-011 -9.9435e-027   
     length 1.81359   
     axis 8.54312e-015 -90 -90   XYZ
    dof ry
    limits (-180.0 0.0)
  end
  begin
     id 28
     name rhand
     direction -1 -4.48812e-011 -1.9887e-026   
     length 0.650516   
     axis 1.26896e-014 -90 -90   XYZ
    dof rx rz
    limits (-90.0 90.0)
           (-45.0 45.0)
  end
  begin
     id 29
     name rfingers
     direction -1 -4.49228e-011 -3.9774e-026   
     length 0.524463   
     axis 2.53792e-014 -90 -90   XYZ
    dof rx
    limits (0.0 90.0)
  end
  begin
     id 30
     name rthumb
     direction -0.707107 -6.34912e-011 0.707107   
     length 0.753027   
     axis -90 -45 -2.85299e-015   XYZ
    dof rx rz
    limits (-45.0 45.0)
           (-45.0 45.0)
  end
:hierarchy
  begin
    root lhipjoint rhipjoint lowerback
    lhipjoint lfemur
    lfemur ltibia
    ltibia lfoot
    lfoot ltoes
    rhipjoint rfemur
    rfemur rtibia
    rtibia rfoot
    rfoot rtoes
    lowerback upperback
    upperback thorax
    thorax lowerneck lclavicle rclavicle
    lowerneck upperneck
    upperneck head
    lclavicle lhumerus
    lhumerus lradius
    lradius lwrist
    lwrist lhand lthumb
    lhand lfingers
    rclavicle rhumerus
    rhumerus rradius
    rradius rwrist
    rwrist rhand rthumb
    rhand rfingers
  end

#!OML:ASF F:\VICON\USERDATA\INSTALL\rory3\rory3.ASF
:FULLY-SPECIFIED
:DEGREES
1019
root 2.57431 17.693 4.19595 -204.189 66.1246 -201.563
lowerback 7.00515 -10.383 -7.61487
upperback 2.32248 -14.2332 0.569464
thorax 0.558511 -7.1769 5.35918
lowerneck 2.18043 -21.9043 2.5235
upperneck 24.8032 -28.85 -2.9091
head 6.6663 -13.5846 -2.47096
rclavicle -4.56211e-014 1.11319e-014
rhumerus -44.0358 -26.8822 -51.2885
rradius 21.1447
rwrist 18.3417
rhand -18.1278 17.8595
rfingers 7.12502
rthumb 8.14697 -11.9635
lclavicle -4.56211e-014 1.11319e-014
lhumerus -13.2737 -5.85948 80.3161
lradius 18.3691
lwrist 1.96654
lhand -31.4456 18.8625
lfingers 7.12502
lthumb -4.71344 48.7901
rfemur -20.0164 13.2713 21.2178
rtibia 32.3984
rfoot -1.42679 3.83543
rtoes 28.0927
lfemur 8.47251 18.2733 -23.676
ltibia 45.1173
lfoot 12.3098 -17.8408
ltoes -21.2078
1020
root 2.43175 17.6724 4.36198 -199.461 66.1915 -197.272
lowerback 6.87345 -10.69 -6.59331
upperback 2.21575 -14.5686 1.20936
thorax 0.483473 -7.34217 5.47714
lowerneck 2.20254 -22.0375 2.40425
upperneck 24.2722 -29.0685 -2.68442
head 6.53817 -13.7187 -2.37105
rclavicle 1.87355e-013 3.18055e-015
rhumerus -43.8127 -26.5327 -51.7784
rradius 20.8541
rwrist 18.649
rhand -17.9914 17.803
rfingers 7.12502
rthumb 8.27862 -12.0148
lclavicle 1.87355e-013 3.18055e-015
lhumerus -12.8598 -5.81467 80.1594
lradius 19.5448
lwrist 2.20541
lhand -32.4573 20.2042
lfingers 7.12502
lthumb -5.69021 50.1078
rfemur -21.1642 13.4496 22.9243
rtibia 31.3937
rfoot 0.152328 2.82137
rtoes 30.8294
lfemur 8.08304 17.3632 -22.5871
ltibia 44.2554
lfoot 12.4952 -17.5854
ltoes -19.7633
1021
root 2.29313 17.648 4.53676 -193.872 65.8842 -191.918
lowerback 6.63749 -10.9389 -5.02904
upperback 2.29038 -14.7766 1.66357
thorax 0.447853 -7.43591 5.10741
lowerneck 1.68069 -22.2629 2.97583
upperneck 24.2487 -29.412 -2.86208
head 6.49892 -13.8628 -2.52692
rclavicle 1.61413e-013 -2.94201e-014
rhumerus -44.1947 -26.8132 -52.1593
rradius 20.7144
rwrist 19.0555
rhand -17.1591 17.9107
rfingers 7.12502
rthumb 9.08184 -11.8738
lclavicle 1.61413e-013 -2.94201e-014
lhumerus -12.1666 -6.55862 79.7286
lradius 20.5486
lwrist 2.57281
lhand -33.9627 22.2177
lfingers 7.12502
lthumb -7.1436 52.0771
rfemur -22.0276 13.333 24.9957
rtibia 30.1858
rfoot 1.37659 2.39623
rtoes 30.3672
lfemur 7.79946 16.1251 -21.0236
ltibia 43.3731
lfoot 11.8053 -16.9574
ltoes -20.49
1022
root 2.1594 17.6218 4.68107 -192.236 65.4065 -190.36
lowerback 6.75276 -11.062 -4.84566
upperback 2.35713 -14.9273 1.7435
thorax 0.449352 -7.51069 5.11348
lowerneck 1.58516 -22.4307 2.8277
upperneck 23.9934 -29.7206 -2.47652
head 6.511 -14.0092 -2.42585
rclavicle -2.17669e-014 -1.35174e-014
rhumerus -44.2797 -26.5344 -52.7064
rradius 20.4861
rwrist 18.7725
rhand -17.103 18.008
rfingers 7.12502
rthumb 9.13593 -11.7741
lclavicle -2.17669e-014 -1.35174e-014
lhumerus -11.5289 -7.16406 79.5035
lradius 21.3613
lwrist 2.77795
lhand -34.1398 22.1328
lfingers 7.12502
lthumb -7.31454 51.9864
rfemur -22.3193 13.2989 25.4637
rtibia 29.0707
rfoot 2.45073 2.02192
rtoes 29.8311
lfemur 8.26779 14.977 -21.1359
ltibia 42.1196
lfoot 10.3789 -15.9294
ltoes -21.3851
1023
root 2.02844 17.5965 4.80432 -192.84 65.0827 -191.109
lowerback 6.85164 -11.1011 -5.45561
upperback 2.43231 -15.0221 1.5933
thorax 0.601115 -7.56942 5.26928
lowerneck 1.67203 -22.5226 2.294
upperneck 23.5365 -29.9511 -1.78816
head 6.53472 -14.1335 -2.18773
rclavicle 1.90833e-014 0
rhumerus -44.0234 -25.7909 -53.572
rradius 20.2583
rwrist 18.0865
rhand -17.1092 17.7462
rfingers 7.12502
rthumb 9.12999 -12.0362
lclavicle 1.90833e-014 0
lhumerus -11.136 -8.68924 79.3546
lradius 22.5577
lwrist 3.88945
lhand -33.3599 20.6892
lfingers 7.12502
lthumb -6.56164 50.5675
rfemur -22.7136 12.9684 25.0811
rtibia 28.3122
rfoot 3.56922 2.00477
rtoes 30.7575
lfemur 9.17222 13.9636 -22.3676
ltibia 40.2791
lfoot 8.29108 -14.6635
ltoes -21.8078
1024
root 1.8956 17.5812 4.93869 -193.061 64.8925 -191.47
lowerback 6.87658 -11.0286 -5.83166
upperback 2.59877 -14.9454 1.33186
thorax 0.776498 -7.53952 5.1766
lowerneck 1.62214 -22.6219 2.08423
upperneck 23.2241 -30.2247 -1.03623
head 6.59409 -14.2388 -1.98824
rclavicle 1.10425e-013 1.59028e-014
rhumerus -44.1692 -25.7273 -54.2468
rradius 20.1229
rwrist 18.2455
rhand -16.8353 17.5528
rfingers 7.12502
rthumb 9.39425 -12.2179
lclavicle 1.10425e-013 1.59028e-014
lhumerus -10.697 -10.8825 79.0517
lradius 23.9775
lwrist 5.33534
lhand -33.3991 20.9544
lfingers 7.12502
lthumb -6.59947 50.8316
rfemur -23.3906 12.3057 25.0363
rtibia 27.8629
rfoot 4.57135 2.86075
rtoes 30.1298
lfemur 10.1009 13.0449 -23.3775
ltibia 38.0496
lfoot 5.24774 -13.6004
ltoes -25.1878
1025
root 1.7589 17.5637 5.08826 -193.448 64.6157 -191.993
lowerback 7.09066 -10.9658 -6.44422
upperback 2.70977 -14.9073 1.08836
thorax 0.861905 -7.52834 5.26296
lowerneck 1.65854 -22.6305 1.69307
upperneck 22.9872 -30.3798 -0.207247
head 6.70502 -14.2884 -1.75035
rclavicle -6.2319e-014 -1.19271e-015
rhumerus -44.438 -25.5844 -54.9304
rradius 20.2067
rwrist 18.6554
rhand -16.2133 17.5243
rfingers 7.12502
rthumb 9.99438 -12.2184
lclavicle -6.2319e-014 -1.19271e-015
lhumerus -10.1092 -11.576 78.7702
lradius 24.99
lwrist 5.75263
lhand -33.9516 21.525
lfingers 7.12502
lthumb -7.13284 51.3848
rfemur -24.0297 11.8708 24.8235
rtibia 27.4692
rfoot 5.2111 3.81112
rtoes 28.5047
lfemur 10.9263 12.1038 -24.3881
ltibia 35.7567
lfoot 1.75632 -12.3285
ltoes -29.3524
1026
root 1.61377 17.5302 5.24366 -193.317 64.2525 -192.092
lowerback 7.2108 -11.0001 -6.81492
upperback 2.80744 -14.9781 0.872529
thorax 0.945276 -7.56856 5.2405
lowerneck 1.77335 -22.6223 1.42122
upperneck 22.5645 -30.4915 0.583268
head 6.71938 -14.3275 -1.50411
rclavicle -3.71727e-014 1.70955e-014
rhumerus -44.6602 -25.4491 -55.7118
rradius 20.4393
rwrist 19.0675
rhand -14.9661 17.491
rfingers 7.12502
rthumb 11.1974 -12.1901
lclavicle -3.71727e-014 1.70955e-014
lhumerus -9.42236 -11.8615 78.2814
lradius 25.77
lwrist 5.96451
lhand -34.3524 21.7578
lfingers 7.12502
lthumb -7.51968 51.6041
rfemur -24.6762 11.7919 24.6012
rtibia 26.8447
rfoot 6.02496 3.95136
rtoes 29.0308
lfemur 11.4272 11.0898 -25.2453
ltibia 33.7338
lfoot -1.94955 -10.4385
ltoes -33.5805
1027
root 1.46379 17.4919 5.40308 -193.331 63.8259 -192.41
lowerback 7.35995 -10.9627 -7.27941
upperback 2.87546 -14.9631 0.626991
thorax 0.986017 -7.56404 5.24481
lowerneck 1.99524 -22.7334 1.29212
upperneck 21.9428 -30.7568 1.45126
head 6.64789 -14.4409 -1.22927
rclavicle -1.78757e-013 2.26615e-014
rhumerus -45.1382 -25.7091 -56.1633
rradius 20.7216
rwrist 19.8668
rhand -14.1805 17.7244
rfingers 7.12502
rthumb 11.955 -11.9142
lclavicle -1.78757e-013 2.26615e-014
lhumerus -8.83919 -13.5168 77.6829
lradius 26.8573
lwrist 7.08409
lhand -34.9072 22.6246
lfingers 7.12502
lthumb -8.0552 52.4511
rfemur -25.3142 11.7444 24.3116
rtibia 25.964
rfoot 7.19745 3.62839
rtoes 28.9489
lfemur 11.7092 10.3459 -26.082
ltibia 32.0636
lfoot -5.34983 -7.91075
ltoes -37.7406
1028
root 1.31506 17.4775 5.5602 -192.938 63.4948 -192.414
lowerback 7.46207 -10.9279 -7.75144
upperback 2.8909 -14.9529 0.593347
thorax 1.05794 -7.5676 5.45676
lowerneck 2.09242 -22.8264 0.907269
upperneck 21.4978 -30.998 2.24307
head 6.67907 -14.5532 -0.98603
rclavicle 7.60351e-014 -9.93923e-015
rhumerus -45.3008 -25.5537 -56.703
rradius 21.0139
rwrist 20.2001
rhand -13.4665 18.0366
rfingers 7.12502
rthumb 12.6435 -11.5607
lclavicle 7.60351e-014 -9.93923e-015
lhumerus -8.21613 -14.4572 77.3868
lradius 27.887
lwrist 7.75361
lhand -35.4608 23.5815
lfingers 7.12502
lthumb -8.5895 53.3868
rfemur -26.0458 11.6259 24.1853
rtibia 24.9286
rfoot 8.69567 3.09804
rtoes 29.1642
lfemur 11.581 9.44184 -26.8144
ltibia 30.6411
lfoot -7.66111 -4.95839
ltoes -39.2573
1029
root 1.169 17.473 5.70775 -192.309 63.225 -192.233
lowerback 7.3364 -10.9914 -7.83812
upperback 2.96762 -15.0278 0.440464
thorax 1.19845 -7.60946 5.30837
lowerneck 1.95904 -22.8229 0.691409
upperneck 21.2803 -31.125 2.92222
head 6.77615 -14.5889 -0.820876
rclavicle 2.0281e-013 -8.34896e-015
rhumerus -45.1855 -24.9229 -57.8612
rradius 21.2857
rwrist 20.0339
rhand -12.4608 18.3727
rfingers 7.12502
rthumb 13.6129 -11.1622
lclavicle 2.0281e-013 -8.34896e-015
lhumerus -7.57962 -15.1009 76.8564
lradius 28.859
lwrist 8.33163
lhand -35.756 23.4405
lfingers 7.12502
lthumb -8.8743 53.2339
rfemur -26.8266 11.1579 24.0858
rtibia 23.9079
rfoot 10.1403 3.02103
rtoes 31.0052
lfemur 11.1825 8.54156 -27.4489
ltibia 29.3275
lfoot -9.45514 -2.16083
ltoes -39.4567
1030
root 1.03269 17.4607 5.85622 -192.46 63.0185 -192.679
lowerback 7.24458 -11.0244 -8.13058
upperback 3.1335 -15.0678 0.0848334
thorax 1.40694 -7.63536 5.05462
lowerneck 1.90567 -22.8012 0.434145
upperneck 21.182 -31.2366 3.63951
head 6.91403 -14.6101 -0.641678
rclavicle 6.8295e-014 -6.75868e-015
rhumerus -44.9142 -23.5101 -59.8025
rradius 21.5249
rwrist 19.4446
rhand -12.6193 18.3735
rfingers 7.12502
rthumb 13.4602 -11.1716
lclavicle 6.8295e-014 -6.75868e-015
lhumerus -7.07702 -15.938 76.1173
lradius 29.9078
lwrist 9.15898
lhand -36.1747 23.0204
lfingers 7.12502
lthumb -9.27842 52.7963
rfemur -27.3043 10.5512 23.7511
rtibia 22.8629
rfoot 11.3348 5.01295
rtoes 28.9213
lfemur 10.9916 8.30059 -28.1141
ltibia 28.1563
lfoot -11.1009 0.261566
ltoes -39.9624
1031
root 0.895166 17.4512 6.00532 -192.906 62.8232 -193.354
lowerback 7.42113 -10.9896 -8.81372
upperback 3.23561 -15.0654 -0.105916
thorax 1.54452 -7.64593 5.21482
lowerneck 2.01348 -22.7559 -0.0657736
upperneck 20.988 -31.3146 4.48332
head 7.05196 -14.629 -0.386761
rclavicle -7.52967e-014 2.95071e-015
rhumerus -44.6063 -22.0405 -61.4537
rradius 21.8055
rwrist 18.853
rhand -12.7364 18.0419
rfingers 7.12502
rthumb 13.3473 -11.5106
lclavicle -7.52967e-014 2.95071e-015
lhumerus -6.48534 -15.7867 75.856
lradius 30.5689
lwrist 9.08196
lhand -36.4067 22.7511
lfingers 7.12502
lthumb -9.50227 52.5169
rfemur -27.7256 10.784 23.0671
rtibia 21.8812
rfoot 12.3224 6.59577
rtoes 25.4013
lfemur 10.8356 8.54161 -28.693
ltibia 27.081
lfoot -12.0943 1.90941
ltoes -39.564
1032
root 0.754295 17.4459 6.15992 -193.072 62.5973 -193.868
lowerback 7.6376 -10.9414 -9.57558
upperback 3.24842 -15.0639 -0.163431
thorax 1.6242 -7.65826 5.56347
lowerneck 1.97 -22.6949 -0.390117
upperneck 20.8184 -31.3392 5.0823
head 7.15228 -14.6248 -0.218084
rclavicle -2.52829e-014 1.26228e-014
rhumerus -44.5051 -21.2101 -62.4387
rradius 22.118
rwrist 18.934
rhand -12.1832 18.1262
rfingers 7.12502
rthumb 13.8805 -11.3906
lclavicle -2.52829e-014 1.26228e-014
lhumerus -5.86989 -15.2435 75.8273
lradius 31.0144
lwrist 8.73523
lhand -35.4856 21.1617
lfingers 7.12502
lthumb -8.61342 50.966
rfemur -28.4593 12.0412 22.0674
rtibia 21.1166
rfoot 13.2677 6.16421
rtoes 23.5299
lfemur 10.405 8.55125 -29.2045
ltibia 26
lfoot -12.58 3.40139
ltoes -38.459
1033
root 0.626435 17.4458 6.31882 -193.233 62.5309 -194.193
lowerback 7.77667 -10.8975 -10.1985
upperback 3.38604 -15.0416 -0.303212
thorax 1.81642 -7.66393 5.73137
lowerneck 1.87787 -22.6419 -0.565343
upperneck 20.6696 -31.3566 5.53561
head 7.22044 -14.6186 -0.100931
rclavicle -2.86995e-014 1.58034e-014
rhumerus -44.359 -20.4906 -63.4953
rradius 22.2573
rwrist 19.4016
rhand -12.0616 18.35
rfingers 7.12502
rthumb 13.9976 -11.1587
lclavicle -2.86995e-014 1.58034e-014
lhumerus -5.46415 -14.8886 75.4634
lradius 31.6998
lwrist 8.99227
lhand -34.1527 18.9631
lfingers 7.12502
lthumb -7.32697 48.8163
rfemur -28.8174 12.0931 21.6221
rtibia 20.2853
rfoot 14.1811 6.89154
rtoes 21.6062
lfemur 10.0798 8.60813 -29.4717
ltibia 25.1727
lfoot -13.389 5.55446
ltoes -39.2
